<svg width="181" height="33" viewBox="0 0 181 33" fill="none" xmlns="http://www.w3.org/2000/svg">
<path d="M23.7329 29.9461C24.0289 29.8342 24.3584 29.9872 24.4686 30.2876C24.5788 30.5881 24.4281 30.9225 24.1322 31.0344C23.1475 31.4078 22.1209 31.6956 21.0617 31.8889C20.0203 32.079 18.9559 32.1783 17.8778 32.1783C12.9411 32.1783 8.4716 30.1471 5.23635 26.8634C2.00115 23.5796 0 19.043 0 14.0323C0 13.7105 0.257156 13.4495 0.574215 13.4495C0.891323 13.4495 1.14848 13.7105 1.14848 14.0323C1.14848 18.7214 3.02105 22.9667 6.04825 26.0393C9.07549 29.1119 13.258 31.0125 17.8778 31.0125C18.904 31.0125 19.9006 30.9211 20.8598 30.746C21.85 30.5653 22.8106 30.2958 23.7329 29.9461ZM17.8778 29.0168C18.1948 29.0168 18.452 29.2779 18.452 29.5997C18.452 29.9215 18.1948 30.1825 17.8778 30.1825C16.4657 30.1825 15.093 29.9943 13.7835 29.6412C12.4314 29.2767 11.1521 28.7376 9.97113 28.0499C9.69618 27.8902 9.6008 27.5344 9.75807 27.2554C9.91529 26.9763 10.2659 26.8795 10.5408 27.0391C11.6404 27.6794 12.8265 28.18 14.075 28.5166C15.285 28.8429 16.5597 29.0168 17.8778 29.0168ZM5.81384 22.6736C5.99587 22.9363 5.93364 23.2992 5.67475 23.484C5.41586 23.6688 5.05832 23.6056 4.87628 23.3428C3.94364 22.0035 3.20661 20.5144 2.70806 18.9189C2.22625 17.3768 1.96622 15.7348 1.96622 14.0323C1.96622 11.1099 2.73174 8.36802 4.07018 6.00211L4.09689 5.95916C5.48335 3.52591 7.47459 1.49474 9.86044 0.0794936C10.1341 -0.0826459 10.4857 0.0111447 10.6455 0.288954C10.8052 0.566764 10.7128 0.923634 10.4391 1.08577C8.22004 2.4021 6.37066 4.28672 5.08627 6.54104L5.066 6.58031C3.82472 8.77458 3.11475 11.3189 3.11475 14.0323C3.11475 15.6141 3.35585 17.1381 3.80267 18.5683C4.26585 20.0505 4.94937 21.4323 5.81384 22.6736ZM11.6023 25.1989C11.8771 25.3586 11.9725 25.7144 11.8153 25.9934C11.658 26.2725 11.3074 26.3693 11.0325 26.2097C8.91669 24.9819 7.15099 23.2008 5.92656 21.06C4.74389 18.9924 4.06662 16.5916 4.06662 14.0323C4.06662 10.1615 5.61257 6.65675 8.11188 4.11996C10.6112 1.58316 14.0641 0.0139626 17.8778 0.0139626C18.7053 0.0139626 19.5247 0.0903073 20.3283 0.236404C21.1435 0.384613 21.934 0.605493 22.6925 0.891852C22.9885 1.00365 23.1391 1.33814 23.0289 1.63858C22.9187 1.93897 22.5892 2.09191 22.2932 1.98006C21.598 1.71754 20.8734 1.51506 20.1265 1.37937C19.4052 1.24816 18.6538 1.17972 17.8778 1.17972C14.3809 1.17972 11.2151 2.61835 8.92378 4.94403C6.63247 7.2697 5.21509 10.483 5.21509 14.0323C5.21509 16.3827 5.83514 18.5842 6.91797 20.4771C8.03989 22.4385 9.65971 24.0718 11.6023 25.1989ZM7.48752 12.0834C7.43054 12.399 7.13221 12.6079 6.8213 12.5502C6.51043 12.4923 6.30451 12.1895 6.36149 11.8739C6.86579 9.08462 8.33009 6.63533 10.3938 4.89263C12.4249 3.17744 15.034 2.14576 17.8778 2.14576C18.9761 2.14576 20.0423 2.30066 21.0554 2.58994C22.0998 2.88822 23.0852 3.32993 23.9893 3.89259C24.2594 4.05981 24.3447 4.41763 24.18 4.69172C24.0152 4.9658 23.6627 5.05241 23.3926 4.88519C22.577 4.3777 21.6881 3.97919 20.7458 3.71003C19.8367 3.45042 18.8747 3.31147 17.8778 3.31147C15.3078 3.31147 12.9539 4.24055 11.125 5.7851C9.26348 7.35706 7.94252 9.56662 7.48752 12.0834ZM24.4344 22.4415C24.6822 22.2429 25.0417 22.2857 25.2375 22.5371C25.4332 22.7885 25.391 23.1535 25.1433 23.3521C24.1263 24.1701 22.9733 24.8199 21.7253 25.2605C20.5166 25.687 19.2217 25.919 17.8778 25.919C15.0802 25.919 12.5103 24.9212 10.4944 23.2569C8.44281 21.5631 6.96672 19.177 6.41114 16.4486C6.34796 16.1343 6.54779 15.8274 6.85742 15.7633C7.1671 15.6992 7.46944 15.902 7.53261 16.2163C8.03325 18.6751 9.36505 20.8268 11.2166 22.3554C13.0325 23.8546 15.3509 24.7532 17.8778 24.7532C19.0976 24.7532 20.2653 24.5454 21.3485 24.1631C22.4772 23.7648 23.5182 23.1784 24.4344 22.4415ZM15.3118 5.88573C15.0109 5.98245 14.6894 5.81327 14.5941 5.5078C14.4988 5.20233 14.6655 4.87603 14.9664 4.77932C15.4307 4.6289 15.9102 4.51339 16.4013 4.43619C16.8923 4.35899 17.3858 4.31875 17.8778 4.31875C19.1197 4.31875 20.3107 4.56157 21.4065 5.00317C22.5421 5.46078 23.5697 6.13096 24.4408 6.96469C24.6712 7.18471 24.6822 7.55269 24.4655 7.78655C24.2487 8.0204 23.8861 8.03157 23.6557 7.81155C22.886 7.07483 21.9814 6.48385 20.9848 6.08232C20.0276 5.69664 18.9793 5.48451 17.8778 5.48451C17.4251 5.48451 16.9906 5.51846 16.5763 5.58353C16.1426 5.65178 15.72 5.75347 15.3118 5.88573ZM22.5231 21.165C22.7869 20.9877 23.1425 21.0612 23.3171 21.3289C23.4917 21.5966 23.4194 21.9575 23.1556 22.1348C22.6413 22.4807 22.0897 22.7782 21.5078 23.0205C20.9343 23.2593 20.3372 23.4429 19.7238 23.5646C19.4129 23.6262 19.1116 23.4202 19.0509 23.1047C18.9903 22.7891 19.1932 22.4833 19.5041 22.4217C20.0518 22.3131 20.5766 22.1525 21.0727 21.9459C21.5813 21.7343 22.0668 21.4718 22.5231 21.165ZM16.696 22.4982C17.0094 22.5421 17.2282 22.8358 17.1849 23.1539C17.1416 23.472 16.8523 23.6941 16.5389 23.6502C14.1978 23.3171 12.1281 22.1242 10.65 20.3964C9.19099 18.6909 8.30779 16.4654 8.30779 14.0323C8.30779 12.5331 8.64502 11.1096 9.24703 9.83648C9.87148 8.51552 10.7799 7.36118 11.8911 6.45569C12.1376 6.25457 12.4982 6.29425 12.6964 6.5445C12.8945 6.7947 12.8554 7.16073 12.6089 7.36189C11.6278 8.16132 10.8272 9.17746 10.2788 10.3374C9.75163 11.4523 9.45627 12.7055 9.45627 14.0323C9.45627 16.177 10.2329 18.1364 11.5157 19.6359C12.816 21.1558 14.6366 22.2052 16.696 22.4982Z" fill="#5FEDD5"/>
<path fill-rule="evenodd" clip-rule="evenodd" d="M39.0518 26.3544C39.0518 29.471 36.5628 31.9974 33.4923 31.9974C30.4218 31.9974 27.9328 29.471 27.9328 26.3544C27.9328 26.3544 28.0407 22.3153 25.5903 20.9372C22.579 19.0878 20.5094 20.5256 17.8647 20.5256C14.8999 20.5085 11.5431 17.653 11.5431 14.1092C11.5431 10.5655 14.3733 7.69277 17.8647 7.69277C19.4065 7.54119 20.8508 8.3369 20.8508 8.3369C20.8508 8.3369 23.4358 10.0555 25.7577 8.46786C28.0796 6.88016 28.0007 4.05584 28.0007 4.05584C28.0007 1.6064 29.9151 0.236816 32.3283 0.236816C34.7416 0.236816 36.6979 2.22242 36.6979 4.67182C36.6979 7.12131 34.7416 9.10686 32.3283 9.10686C32.3283 9.10686 29.493 8.27147 26.7448 9.74476C23.9965 11.218 24.1481 13.9291 24.1481 13.9291C24.1481 13.9291 23.958 17.7244 26.8288 19.3928C28.611 20.9307 30.8308 20.6735 33.4923 20.6082C35.874 20.659 39.0518 23.2379 39.0518 26.3544Z" fill="#6496FF"/>
<path d="M48.4454 10.0073V0.027502H56.3112C56.8484 0.027502 57.3103 0.221575 57.6973 0.609674C58.0842 0.997773 58.2777 1.46905 58.2777 2.02347V8.01131C58.2777 8.56577 58.0842 9.037 57.6973 9.4251C57.3103 9.81325 56.8484 10.0073 56.3112 10.0073H48.4454ZM50.8625 8.01131H55.8333C56.1064 8.01131 56.252 8.00211 56.2702 7.9836C56.2884 7.96514 56.2976 7.81729 56.2976 7.54003V2.49475C56.2976 2.21754 56.2884 2.06969 56.2702 2.05123C56.252 2.03267 56.1064 2.02347 55.8333 2.02347H50.8625C50.5894 2.02347 50.446 2.03267 50.4323 2.05123C50.4186 2.06969 50.4119 2.21754 50.4119 2.49475V7.54003C50.4119 7.81729 50.4186 7.96514 50.4323 7.9836C50.446 8.00211 50.5894 8.01131 50.8625 8.01131ZM59.7525 10.0073V0.027502H61.6916V10.0073H59.7525ZM64.6959 10.0073C64.1497 10.0073 63.6854 9.81325 63.3031 9.4251C62.9207 9.037 62.7295 8.56577 62.7295 8.01131V2.02347C62.7295 1.46905 62.9207 0.997773 63.3031 0.609674C63.6854 0.221575 64.1497 0.027502 64.6959 0.027502H70.5953C71.1324 0.027502 71.5945 0.221575 71.9814 0.609674C72.3683 0.997773 72.5618 1.46905 72.5618 2.02347V2.88285H70.5816V2.49475C70.5816 2.21754 70.5726 2.06969 70.5543 2.05123C70.5361 2.03267 70.3905 2.02347 70.1174 2.02347H65.1466C64.8735 2.02347 64.7301 2.03267 64.7165 2.05123C64.7028 2.06969 64.6959 2.21754 64.6959 2.49475V7.54003C64.6959 7.81729 64.7028 7.96514 64.7165 7.9836C64.7301 8.00211 64.8735 8.01131 65.1466 8.01131H70.1174C70.3905 8.01131 70.5361 8.00211 70.5543 7.9836C70.5726 7.96514 70.5816 7.81729 70.5816 7.54003V6.27872H68.3967V4.26893H72.5618V8.01131C72.5618 8.56577 72.3683 9.037 71.9814 9.4251C71.5945 9.81325 71.1324 10.0073 70.5953 10.0073H64.6959ZM74.0093 10.0073V0.027502H75.9484V10.0073H74.0093ZM80.6597 10.0073V2.02347H76.7268V0.027502H86.5591V2.02347H82.6262V10.0073H80.6597ZM87.6106 10.0073V2.02347C87.6106 1.46905 87.8018 0.997773 88.1842 0.609674C88.5665 0.221575 89.0308 0.027502 89.5771 0.027502H95.4764C96.0135 0.027502 96.4756 0.221575 96.8624 0.609674C97.2494 0.997773 97.4428 1.46905 97.4428 2.02347V10.0073H95.4627V6.72229H89.5771V10.0073H87.6106ZM89.5771 4.72633H95.4627V2.49475C95.4627 2.21754 95.4536 2.06969 95.4354 2.05123C95.4172 2.03267 95.2715 2.02347 94.9984 2.02347H90.0277C89.7545 2.02347 89.6112 2.03267 89.5975 2.05123C89.5838 2.06969 89.5771 2.21754 89.5771 2.49475V4.72633ZM99.0133 10.0073V0.0136719H100.98V8.01131H108.846V10.0073H99.0133ZM113.967 10.0073V0.027502H123.034V2.02347H115.947V4.01943H121.655V6.01535H115.947V10.0073H113.967ZM123.758 10.0073V0.027502H125.697V10.0073H123.758ZM126.735 10.0073V0.027502H128.811L134.587 6.99945V0.027502H136.567V10.0073H134.491L128.701 3.00762V10.0073H126.735ZM140.063 10.0073C139.517 10.0073 139.053 9.81325 138.67 9.4251C138.288 9.037 138.097 8.56577 138.097 8.01131V2.02347C138.097 1.46905 138.288 0.997773 138.67 0.609674C139.053 0.221575 139.517 0.027502 140.063 0.027502H145.962C146.5 0.027502 146.962 0.221575 147.349 0.609674C147.735 0.997773 147.929 1.46905 147.929 2.02347V2.88285H145.949V2.49475C145.949 2.21754 145.94 2.06969 145.921 2.05123C145.903 2.03267 145.758 2.02347 145.484 2.02347H140.514C140.241 2.02347 140.097 2.03267 140.084 2.05123C140.07 2.06969 140.063 2.21754 140.063 2.49475V7.54003C140.063 7.81729 140.07 7.96514 140.084 7.9836C140.097 8.00211 140.241 8.01131 140.514 8.01131H145.484C145.758 8.01131 145.903 8.00211 145.921 7.9836C145.94 7.96514 145.949 7.81729 145.949 7.54003V6.27872H143.764V4.26893H147.929V8.01131C147.929 8.56577 147.735 9.037 147.349 9.4251C146.962 9.81325 146.5 10.0073 145.962 10.0073H140.063ZM149.458 10.0073V0.027502H158.526V2.02347H151.438V4.01943H157.147V6.01535H151.438V8.01131H158.526V10.0073H149.458ZM159.878 10.0073V0.0413813H167.744C168.281 0.0413813 168.743 0.237772 169.13 0.630498C169.517 1.02317 169.71 1.49219 169.71 2.03735V4.67091C169.71 5.20681 169.517 5.6712 169.13 6.06388C168.743 6.4566 168.281 6.65299 167.744 6.65299H167.43L169.696 9.38356V10.0073H167.634L164.862 6.65299L161.844 6.66682V10.0073H159.878ZM162.295 4.65703H167.266C167.539 4.65703 167.684 4.64782 167.703 4.62932C167.721 4.61081 167.73 4.463 167.73 4.18575V2.49475C167.73 2.21754 167.721 2.072 167.703 2.05817C167.684 2.04429 167.539 2.03735 167.266 2.03735H162.295C162.022 2.03735 161.878 2.04429 161.865 2.05817C161.851 2.072 161.844 2.21754 161.844 2.49475V4.18575C161.844 4.463 161.851 4.61081 161.865 4.62932C161.878 4.64782 162.022 4.65703 162.295 4.65703ZM173.083 10.0073C172.546 10.0073 172.086 9.81325 171.704 9.4251C171.321 9.037 171.13 8.56577 171.13 8.01131V7.16581H173.083V7.54003C173.083 7.81729 173.092 7.96514 173.11 7.9836C173.129 8.00211 173.274 8.01131 173.547 8.01131H178.504C178.787 8.01131 178.935 8.00211 178.948 7.9836C178.962 7.96514 178.969 7.81729 178.969 7.54003V6.48668C178.969 6.20947 178.962 6.06162 178.948 6.04316C178.935 6.0246 178.787 6.01535 178.504 6.01535H173.083C172.546 6.01535 172.086 5.82132 171.704 5.43322C171.321 5.04517 171.13 4.57847 171.13 4.03331V2.02347C171.13 1.46905 171.321 0.997773 171.704 0.609674C172.086 0.221575 172.546 0.027502 173.083 0.027502H178.996C179.524 0.027502 179.984 0.221575 180.375 0.609674C180.767 0.997773 180.962 1.46905 180.962 2.02347V2.86897H178.969V2.49475C178.969 2.21754 178.962 2.06969 178.948 2.05123C178.935 2.03267 178.787 2.02347 178.504 2.02347H173.547C173.274 2.02347 173.129 2.03267 173.11 2.05123C173.092 2.06969 173.083 2.21754 173.083 2.49475V3.5482C173.083 3.82541 173.092 3.97326 173.11 3.99172C173.129 4.01018 173.274 4.01943 173.547 4.01943H178.996C179.524 4.01943 179.984 4.21351 180.375 4.60155C180.767 4.9897 180.962 5.45631 180.962 6.00156V8.01131C180.962 8.56577 180.767 9.037 180.375 9.4251C179.984 9.81325 179.524 10.0073 178.996 10.0073H173.083Z" fill="#6496FF"/>
<path d="M48.4456 32.1781V18.0073C48.4456 17.22 48.717 16.5508 49.2599 15.9997C49.8029 15.4487 50.4622 15.1731 51.2378 15.1731H62.407C63.1826 15.1731 63.8419 15.4487 64.3849 15.9997C64.9278 16.5509 65.1992 17.2201 65.1992 18.0073V32.1781H63.3145V25.9665H50.3303V32.1781H48.4456ZM50.3303 24.0534H63.3145V18.0073C63.3145 17.7553 63.2252 17.5388 63.0469 17.3578C62.8685 17.1768 62.6551 17.0862 62.407 17.0862H51.2378C50.9898 17.0862 50.7764 17.1768 50.5979 17.3578C50.4196 17.5388 50.3303 17.7554 50.3303 18.0073V24.0534ZM70.6442 32.1781C69.8687 32.1781 69.2093 31.9025 68.6663 31.3515C68.1234 30.8004 67.8519 30.1312 67.8519 29.344V18.0073C67.8519 17.22 68.1234 16.5509 68.6663 15.9997C69.2093 15.4487 69.8686 15.1731 70.6442 15.1731H84.559V17.0862H70.6442C70.396 17.0862 70.1827 17.1768 70.0043 17.3578C69.8259 17.5388 69.7367 17.7554 69.7367 18.0073V29.344C69.7367 29.5958 69.8259 29.8123 70.0043 29.9934C70.1827 30.1745 70.396 30.265 70.6442 30.265H84.559V32.1781H70.6442ZM87.0256 32.1781V18.0073C87.0256 17.22 87.2971 16.5508 87.84 15.9997C88.3829 15.4487 89.0423 15.1731 89.8179 15.1731H100.987C101.763 15.1731 102.422 15.4487 102.965 15.9997C103.508 16.5509 103.779 17.2201 103.779 18.0073V32.1781H101.895V25.9665H88.9104V32.1781H87.0256ZM88.9104 24.0534H101.895V18.0073C101.895 17.7553 101.805 17.5388 101.627 17.3578C101.449 17.1768 101.235 17.0862 100.987 17.0862H89.8179C89.5698 17.0862 89.3564 17.1768 89.178 17.3578C88.9997 17.5388 88.9104 17.7554 88.9104 18.0073V24.0534ZM106.478 32.1781V15.1731H120.44C121.216 15.1731 121.875 15.4487 122.418 15.9997C122.961 16.5509 123.232 17.2201 123.232 18.0073V29.344C123.232 30.1312 122.961 30.8004 122.418 31.3515C121.875 31.9025 121.215 32.1781 120.44 32.1781H106.478ZM109.271 30.265H120.44C120.688 30.265 120.901 30.1745 121.08 29.9934C121.258 29.8123 121.347 29.5959 121.347 29.344V18.0073C121.347 17.7553 121.258 17.5388 121.08 17.3578C120.901 17.1768 120.688 17.0862 120.44 17.0862H109.271C109.023 17.0862 108.809 17.1768 108.631 17.3578C108.453 17.5388 108.363 17.7554 108.363 18.0073V29.344C108.363 29.5958 108.452 29.8123 108.631 29.9934C108.809 30.1745 109.023 30.265 109.271 30.265ZM125.885 32.1781V15.1731H141.173V17.0862H127.77V22.7072H138.543V24.644H127.77V30.265H141.173V32.1781H125.885ZM142.988 32.1781V15.1731H145.57L152.528 23.5812L159.485 15.1731H162.068V32.1781H160.183V17.3459L152.528 26.5806L144.872 17.3459V32.1781H142.988ZM171.376 32.1781V25.7776L163.674 15.1731H165.838L172.33 23.4867L178.752 15.1731H180.963L173.261 25.7776V32.1781H171.376Z" fill="#5FEDD5"/>
</svg>
